<?xml version="1.0" encoding="UTF-8"?>
<svg version="1.1" xmlns="http://www.w3.org/2000/svg" width="200" height="200">
<path d="M0 0 C66 0 132 0 200 0 C200 66 200 132 200 200 C134 200 68 200 0 200 C0 134 0 68 0 0 Z " fill="#FEFEFE" transform="translate(0,0)"/>
<path d="M0 0 C1.24394531 -0.01417969 2.48789062 -0.02835937 3.76953125 -0.04296875 C6.91273994 0.16897332 8.57521164 0.52274193 11.1875 2.1875 C11.56366822 8.58235981 11.56366822 8.58235981 9.75 11.5 C7.42143033 15.50513984 7.4443226 19.62668478 7.1875 24.1875 C4.8775 24.1875 2.5675 24.1875 0.1875 24.1875 C0.1875 21.8775 0.1875 19.5675 0.1875 17.1875 C-1.4625 16.8575 -3.1125 16.5275 -4.8125 16.1875 C-5.0290625 17.8890625 -5.0290625 17.8890625 -5.25 19.625 C-5.8125 23.1875 -5.8125 23.1875 -6.8125 24.1875 C-9.14547433 24.22842937 -11.47955225 24.22991723 -13.8125 24.1875 C-12.83890626 20.37355426 -11.85769806 16.56160917 -10.875 12.75 C-10.59720703 11.66138672 -10.31941406 10.57277344 -10.03320312 9.45117188 C-9.76572266 8.41669922 -9.49824219 7.38222656 -9.22265625 6.31640625 C-8.97652588 5.35806885 -8.73039551 4.39973145 -8.47680664 3.41235352 C-7.12677031 -1.10910222 -4.33098104 0.02230165 0 0 Z " fill="#35378B" transform="translate(53.8125,84.8125)"/>
<path d="M0 0 C2.24973447 -0.054138 4.49984383 -0.09285491 6.75 -0.125 C8.00296875 -0.14820312 9.2559375 -0.17140625 10.546875 -0.1953125 C13.73675471 -0.01488944 15.44271032 0.14580943 18 2 C19.24853207 5.66236075 19.16625891 7.52893309 17.875 11.1875 C15.75847796 14.36228305 14.50194832 15.5213996 11 17 C8.320423 17.50802389 5.72561488 17.76901569 3 18 C2.34 20.31 1.68 22.62 1 25 C-1.31 25 -3.62 25 -6 25 C-5.22805781 19.58753175 -3.85429135 14.39530508 -2.4375 9.125 C-2.20353516 8.24585937 -1.96957031 7.36671875 -1.72851562 6.4609375 C-1.15481145 4.30661979 -0.57857836 2.1530128 0 0 Z " fill="#383B8D" transform="translate(89,85)"/>
<path d="M0 0 C1.31291016 -0.03867188 1.31291016 -0.03867188 2.65234375 -0.078125 C5.0625 0.25 5.0625 0.25 6.921875 1.49609375 C8.0625 3.25 8.0625 3.25 7.98828125 5.30078125 C7.78589844 6.04714844 7.58351563 6.79351562 7.375 7.5625 C7.06369141 8.74585937 7.06369141 8.74585937 6.74609375 9.953125 C5.91561206 12.74354347 5.04624094 15.50957882 4.0625 18.25 C2.763125 18.229375 1.46375 18.20875 0.125 18.1875 C-1.22915633 18.16600546 -2.58506083 18.17851801 -3.9375 18.25 C-4.2675 18.58 -4.5975 18.91 -4.9375 19.25 C-8.4375 19.375 -8.4375 19.375 -11.9375 19.25 C-12.9375 18.25 -12.9375 18.25 -13.25 15.4375 C-12.9375 12.25 -12.9375 12.25 -11.5625 9.9375 C-7.60914537 7.39605774 -3.55482442 7.42623376 1.0625 7.25 C1.0625 6.26 1.0625 5.27 1.0625 4.25 C-0.2575 4.25 -1.5775 4.25 -2.9375 4.25 C-2.9375 4.91 -2.9375 5.57 -2.9375 6.25 C-5.2475 6.25 -7.5575 6.25 -9.9375 6.25 C-7.07127268 1.16896066 -5.81329544 0.10243692 0 0 Z " fill="#3F4291" transform="translate(116.9375,90.75)"/>
<path d="M0 0 C1.98 0 3.96 0 6 0 C5.85831863 1.43791516 5.71148957 2.8753237 5.5625 4.3125 C5.48128906 5.11300781 5.40007812 5.91351563 5.31640625 6.73828125 C5 9 5 9 4 12 C5.32 12 6.64 12 8 12 C8.99 8.04 9.98 4.08 11 0 C13.31 0 15.62 0 18 0 C17.35531497 2.43780899 16.70929951 4.87525201 16.0625 7.3125 C15.88009766 8.00279297 15.69769531 8.69308594 15.50976562 9.40429688 C14.7406739 12.29887844 13.94738424 15.15784729 13 18 C10.33333333 18 7.66666667 18 5 18 C3.2365625 18.0309375 3.2365625 18.0309375 1.4375 18.0625 C-2 18 -2 18 -3 17 C-3.72302181 10.64575059 -2.53155241 5.80147428 0 0 Z " fill="#393C8D" transform="translate(67,92)"/>
<path d="M0 0 C1.98 0 3.96 0 6 0 C6.33 2.31 6.66 4.62 7 7 C8.32 4.69 9.64 2.38 11 0 C12.98 0 14.96 0 17 0 C15.46848834 5.43383798 12.92393202 9.93552708 10.0625 14.75 C9.61970703 15.51699219 9.17691406 16.28398438 8.72070312 17.07421875 C8.28822266 17.80769531 7.85574219 18.54117188 7.41015625 19.296875 C7.01965088 19.96041992 6.62914551 20.62396484 6.22680664 21.30761719 C5 23 5 23 2 25 C-0.33199388 25.07905064 -2.66832622 25.08798769 -5 25 C-4.67 23.35 -4.34 21.7 -4 20 C-3.01 19.67 -2.02 19.34 -1 19 C-0.67 12.73 -0.34 6.46 0 0 Z " fill="#35388B" transform="translate(127,92)"/>
<path d="M0 0 C0.66 0 1.32 0 2 0 C3.00484204 1.95585325 4.00373805 3.91476237 5 5.875 C5.556875 6.96554688 6.11375 8.05609375 6.6875 9.1796875 C8 12 8 12 8 14 C6.42578125 15.55078125 6.42578125 15.55078125 4.3125 17.3125 C1.04699036 20.08499308 -2.01915985 22.92600859 -5 26 C-5.66 25.67 -6.32 25.34 -7 25 C-7 24.34 -7 23.68 -7 23 C-8.32 23.99 -9.64 24.98 -11 26 C-10.37875118 20.67401291 -9.18521174 15.79218212 -7.5625 10.6875 C-7.34529297 9.97271484 -7.12808594 9.25792969 -6.90429688 8.52148438 C-5.24973171 3.24973171 -5.24973171 3.24973171 -3 1 C-2.67 2.32 -2.34 3.64 -2 5 C-1.34 5 -0.68 5 0 5 C0 3.35 0 1.7 0 0 Z " fill="#F26723" transform="translate(152,88)"/>
<path d="M0 0 C0.66 0 1.32 0 2 0 C3.00484204 1.95585325 4.00373805 3.91476237 5 5.875 C5.556875 6.96554688 6.11375 8.05609375 6.6875 9.1796875 C8 12 8 12 8 14 C6.42578125 15.55078125 6.42578125 15.55078125 4.3125 17.3125 C1.04699036 20.08499308 -2.01915985 22.92600859 -5 26 C-5.66 25.67 -6.32 25.34 -7 25 C-4.8227865 19.79887886 -2.39291786 17.31909349 2 14 C1.5359375 12.6078125 1.5359375 12.6078125 1.0625 11.1875 C-0.40810956 6.77567132 -1.10319274 4.53534791 0 0 Z " fill="#30874E" transform="translate(152,88)"/>
<path d="M0 0 C2.07455729 2.87130755 1.97835138 4.21172352 1.609375 7.8203125 C1.33668562 9.25788856 1.04975788 10.69282346 0.75 12.125 C0.61464844 12.85332031 0.47929688 13.58164063 0.33984375 14.33203125 C-0.72722854 19.72722854 -0.72722854 19.72722854 -3 22 C-5.68839385 22.26991906 -8.29141936 22.08737357 -11 22 C-11 21.67 -11 21.34 -11 21 C-8.69 21 -6.38 21 -4 21 C-4.03480469 20.25234375 -4.06960937 19.5046875 -4.10546875 18.734375 C-4.13253906 17.74953125 -4.15960938 16.7646875 -4.1875 15.75 C-4.22230469 14.77546875 -4.25710937 13.8009375 -4.29296875 12.796875 C-3.95538692 9.57409384 -3.03159132 8.44620179 -1 6 C-0.27954633 2.84881675 -0.27954633 2.84881675 0 0 Z " fill="#E6E6F0" transform="translate(65,88)"/>
<path d="M0 0 C1.98 0 3.96 0 6 0 C5.67 1.65 5.34 3.3 5 5 C3.02 5 1.04 5 -1 5 C-0.67 3.35 -0.34 1.7 0 0 Z " fill="#D9DAE9" transform="translate(52,91)"/>
<path d="M0 0 C0.99 0.33 1.98 0.66 3 1 C4.1875 4.0625 4.1875 4.0625 5 7 C2.69 8.98 0.38 10.96 -2 13 C-2.66 12.67 -3.32 12.34 -4 12 C-2.02 9.69 -0.04 7.38 2 5 C1.34 3.35 0.68 1.7 0 0 Z " fill="#EA5F18" transform="translate(150,95)"/>
<path d="M0 0 C1.65 0 3.3 0 5 0 C4.67 1.65 4.34 3.3 4 5 C2.35 5 0.7 5 -1 5 C-0.67 3.35 -0.34 1.7 0 0 Z " fill="#EEEEF5" transform="translate(95,91)"/>
<path d="M0 0 C0.99 0.66 1.98 1.32 3 2 C2.34 4.97 1.68 7.94 1 11 C0.01 10.67 -0.98 10.34 -2 10 C-1.34 6.7 -0.68 3.4 0 0 Z " fill="#D7D8E8" transform="translate(84,93)"/>
<path d="M0 0 C0.66 0 1.32 0 2 0 C1.49396008 2.16874252 1.00016187 3.99967627 0 6 C-2.64 6 -5.28 6 -8 6 C-8 5.67 -8 5.34 -8 5 C-5.69 5 -3.38 5 -1 5 C-0.67 3.35 -0.34 1.7 0 0 Z " fill="#BDBED9" transform="translate(62,104)"/>
</svg>
