<?xml version="1.0" encoding="UTF-8"?>
<svg version="1.1" xmlns="http://www.w3.org/2000/svg" width="512" height="512">
<path d="M0 0 C3.95583044 4.25349849 6.55987557 8.58611483 9.07421875 13.79296875 C9.43969315 14.53231155 9.80516754 15.27165436 10.18171692 16.03340149 C10.95749669 17.60468816 11.72969354 19.17774822 12.49853516 20.75244141 C14.49760546 24.8466359 16.52224358 28.92818172 18.54296875 33.01171875 C18.93551849 33.80693939 19.32806824 34.60216003 19.73251343 35.42147827 C22.56953097 41.16068636 25.48324422 46.85291422 28.5 52.5 C31.95257169 58.98259205 35.32166871 65.50242883 38.625 72.0625 C39.06392578 72.92746094 39.50285156 73.79242188 39.95507812 74.68359375 C40.35404297 75.48023437 40.75300781 76.276875 41.1640625 77.09765625 C41.51936035 77.80414307 41.8746582 78.51062988 42.24072266 79.23852539 C43 81 43 81 43 83 C43.66 83 44.32 83 45 83 C45.12799484 81.99006485 45.25598969 80.9801297 45.38786316 79.93959045 C45.97215147 76.17922756 46.79886026 72.63732431 47.79418945 68.96655273 C48.0627475 67.96998154 48.0627475 67.96998154 48.33673096 66.95327759 C48.92427812 64.77876095 49.51826463 62.60607754 50.11328125 60.43359375 C50.52831139 58.91099073 50.94328337 57.38837185 51.35820007 55.86573792 C52.22672867 52.68345068 53.09901285 49.50221846 53.97338867 46.3215332 C55.08993864 42.25702271 56.19236309 38.18882445 57.29140949 34.11955166 C58.14278398 30.97671834 59.0040238 27.83665009 59.86797142 24.69725227 C60.27859006 23.19880692 60.68562827 21.69937542 61.0889225 20.19894218 C61.65480346 18.09764449 62.23451161 16.00062324 62.81762695 13.90405273 C63.14326126 12.71271225 63.46889557 11.52137177 63.80439758 10.29393005 C65.38160136 5.94867376 67.25747748 2.14508623 71.1875 -0.4375 C75.25513387 -1.25102677 79.11376498 -1.58895323 83 0 C88.72004773 5.79376593 92.01090153 12.34969465 95.58105469 19.61035156 C96.21508504 20.88146539 96.85000817 22.15213423 97.48574829 23.4223938 C99.20153141 26.85678367 100.90499126 30.29715378 102.60636806 33.73869801 C104.40125019 37.36369112 106.20796698 40.982776 108.01348877 44.60247803 C111.43751346 51.47120307 114.85166537 58.34478342 118.26194692 65.22034049 C123.2358862 75.24747343 128.22339785 85.26785269 133.21232986 95.28753281 C133.76650404 96.40054744 133.76650404 96.40054744 134.33187366 97.53604722 C135.07021018 99.01893151 135.80857276 100.50180283 136.54696202 101.98466086 C138.68018324 106.26952781 140.81015763 110.55598838 142.93732774 114.84386235 C149.80063544 128.67696752 156.72154596 142.46742052 163.98760986 156.09485245 C168.237612 164.09263993 172.33770752 172.16987995 176.43554688 180.24633789 C177.57206252 182.47716043 178.71641858 184.70400412 179.86816406 186.92700195 C181.55900329 190.19317941 183.22331887 193.47171448 184.8828125 196.75390625 C185.39828644 197.73637833 185.91376038 198.7188504 186.44485474 199.73109436 C189.50748764 205.87253129 191.19837097 211.1077081 190 218 C188.74780273 220.46289062 188.74780273 220.46289062 186.99609375 222.15625 C186.35526855 222.79820312 185.71444336 223.44015625 185.05419922 224.1015625 C184.37631348 224.72804688 183.69842773 225.35453125 183 226 C182.35691895 226.62648438 181.71383789 227.25296875 181.05126953 227.8984375 C179.0817383 229.79659107 177.07882058 231.65170614 175.0625 233.5 C173.64617322 234.81146163 172.23079672 236.12395033 170.81640625 237.4375 C170.15141113 238.05496094 169.48641602 238.67242187 168.80126953 239.30859375 C166.65255048 241.32625783 164.56557522 243.39746617 162.5 245.5 C160.1284502 247.91297425 157.69313609 250.17229039 155.125 252.375 C151.93317491 255.11621449 148.95697023 258.00685888 146 261 C143.10408042 263.93118191 140.19757429 266.76403174 137.0625 269.4375 C133.71074927 272.30172335 130.59443244 275.36333716 127.5 278.5 C123.81005412 282.24030338 120.02496302 285.7823935 116.02734375 289.19140625 C113.58571366 291.36958492 111.29951968 293.67248008 109 296 C106.10408042 298.93118191 103.19757429 301.76403174 100.0625 304.4375 C96.71074927 307.30172335 93.59443244 310.36333716 90.5 313.5 C86.81005412 317.24030338 83.02496302 320.7823935 79.02734375 324.19140625 C76.58571366 326.36958492 74.29951968 328.67248008 72 331 C69.10408042 333.93118191 66.19757429 336.76403174 63.0625 339.4375 C59.71074927 342.30172335 56.59443244 345.36333716 53.5 348.5 C49.81005412 352.24030338 46.02496302 355.7823935 42.02734375 359.19140625 C39.58571366 361.36958492 37.29951968 363.67248008 35 366 C32.10408042 368.93118191 29.19757429 371.76403174 26.0625 374.4375 C22.71074927 377.30172335 19.59443244 380.36333716 16.5 383.5 C12.81005412 387.24030338 9.02496302 390.7823935 5.02734375 394.19140625 C2.58571366 396.36958492 0.29951968 398.67248008 -2 401 C-5.49624488 404.53881711 -9.07526378 407.85478808 -12.86328125 411.07421875 C-16.52463751 414.37412485 -19.89085018 417.97925033 -23.2890625 421.546875 C-26.66431381 424.60113699 -29.77602954 426.76628225 -34.37890625 427.25 C-38.57308684 426.76980759 -40.59539076 426.32031565 -44 423.625 C-47.21211285 419.40910188 -47.22343238 416.18272367 -47 411 C-46.35461426 407.84242249 -46.35461426 407.84242249 -45.43945312 404.60571289 C-45.09910034 403.38497574 -44.75874756 402.16423859 -44.40808105 400.9065094 C-44.03266633 399.59516899 -43.65705137 398.2838859 -43.28125 396.97265625 C-42.89931286 395.6152487 -42.51818105 394.25761431 -42.13781738 392.89976501 C-41.13970591 389.34489748 -40.13075552 385.79319726 -39.1194458 382.24206543 C-38.08733481 378.61050729 -37.06560239 374.97603282 -36.04296875 371.34179688 C-34.03873945 364.22498512 -32.0230399 357.11149035 -30 350 C-30.33 349.67 -30.66 349.34 -31 349 C-31.44279297 349.44802979 -31.88558594 349.89605957 -32.34179688 350.35766602 C-34.39176683 352.42870096 -36.44585433 354.49560697 -38.5 356.5625 C-39.19609375 357.26697266 -39.8921875 357.97144531 -40.609375 358.69726562 C-44.67466285 362.78137425 -48.83911543 366.6654215 -53.20507812 370.42553711 C-55.58274175 372.51116724 -57.7941956 374.73457926 -60 377 C-63.52106323 380.56400302 -67.13186008 383.90304168 -70.9375 387.15625 C-73.38924689 389.34796313 -75.68885573 391.66067104 -78 394 C-80.89591958 396.93118191 -83.80242571 399.76403174 -86.9375 402.4375 C-90.28929442 405.30176069 -93.40503791 408.36382106 -96.5 411.5 C-100.831536 415.8777033 -105.21834618 420.11283569 -110 424 C-110.804375 424.66 -111.60875 425.32 -112.4375 426 C-116.40687148 427.54902301 -119.94999424 427.23261045 -124 426 C-127 423.5 -127 423.5 -129 421 C-129.33 420.67 -129.66 420.34 -130 420 C-130.8992813 410.1470847 -127.92868564 401.23449654 -125.26171875 391.87109375 C-124.7522285 390.04609752 -124.24390294 388.22077581 -123.73664856 386.39515686 C-122.64334237 382.46993665 -121.54193352 378.54711611 -120.43408203 374.62597656 C-118.65700753 368.33618224 -116.89769779 362.04150012 -115.140625 355.74609375 C-112.67287925 346.91061699 -110.19724637 338.07738654 -107.71630859 329.24560547 C-104.18446128 316.67012809 -100.6756135 304.08832686 -97.17578125 291.50390625 C-96.89981298 290.51170012 -96.62384472 289.51949398 -96.33951378 288.49722099 C-95.22721569 284.49797802 -94.11499609 280.49871324 -93.00300503 276.49938488 C-91.04142606 269.44489496 -89.07734142 262.39110593 -87.11206055 255.33764648 C-79.64509168 228.53594506 -72.21308977 201.72473038 -64.80326843 174.90717697 C-55.61222188 141.6430802 -46.39396803 108.38667096 -37.14111328 75.13970947 C-36.26150932 71.97885868 -35.38218378 68.81793055 -34.50292969 65.65698242 C-33.12028484 60.68661459 -31.73681113 55.71647816 -30.35268402 50.7465229 C-29.84941098 48.93911496 -29.3463522 47.13164734 -28.84354401 45.32411003 C-27.69777992 41.20575144 -26.5483227 37.08852004 -25.39025879 32.97360229 C-24.39198322 29.42236289 -23.4212442 25.86453009 -22.46032715 22.30300903 C-21.94086835 20.41101836 -21.42121976 18.51907978 -20.90136719 16.62719727 C-20.67022846 15.75283744 -20.43908974 14.87847761 -20.20094681 13.97762203 C-18.6245381 8.29872599 -16.96804363 2.95042867 -11.8125 -0.4375 C-7.78397766 -1.24320447 -3.87661121 -1.48691937 0 0 Z " fill="#EC8900" transform="translate(226,43)"/>
<path d="M0 0 C5.72004773 5.79376593 9.01090153 12.34969465 12.58105469 19.61035156 C13.21508504 20.88146539 13.85000817 22.15213423 14.48574829 23.4223938 C16.20153141 26.85678367 17.90499126 30.29715378 19.60636806 33.73869801 C21.40125019 37.36369112 23.20796698 40.982776 25.01348877 44.60247803 C28.43751346 51.47120307 31.85166537 58.34478342 35.26194692 65.22034049 C40.2358862 75.24747343 45.22339785 85.26785269 50.21232986 95.28753281 C50.58177932 96.02954256 50.95122877 96.77155232 51.33187366 97.53604722 C52.07021018 99.01893151 52.80857276 100.50180283 53.54696202 101.98466086 C55.68018324 106.26952781 57.81015763 110.55598838 59.93732774 114.84386235 C66.80063544 128.67696752 73.72154596 142.46742052 80.98760986 156.09485245 C85.237612 164.09263993 89.33770752 172.16987995 93.43554688 180.24633789 C94.57206252 182.47716043 95.71641858 184.70400412 96.86816406 186.92700195 C98.55900329 190.19317941 100.22331887 193.47171448 101.8828125 196.75390625 C102.39828644 197.73637833 102.91376038 198.7188504 103.44485474 199.73109436 C106.50748764 205.87253129 108.19837097 211.1077081 107 218 C105.74780273 220.46289062 105.74780273 220.46289062 103.99609375 222.15625 C103.03485596 223.11917969 103.03485596 223.11917969 102.05419922 224.1015625 C101.37631348 224.72804688 100.69842773 225.35453125 100 226 C99.35691895 226.62648438 98.71383789 227.25296875 98.05126953 227.8984375 C96.0817383 229.79659107 94.07882058 231.65170614 92.0625 233.5 C90.64617322 234.81146163 89.23079672 236.12395033 87.81640625 237.4375 C87.15141113 238.05496094 86.48641602 238.67242187 85.80126953 239.30859375 C83.65255048 241.32625783 81.56557522 243.39746617 79.5 245.5 C77.1284502 247.91297425 74.69313609 250.17229039 72.125 252.375 C68.93317491 255.11621449 65.95697023 258.00685888 63 261 C60.10408042 263.93118191 57.19757429 266.76403174 54.0625 269.4375 C50.71074927 272.30172335 47.59443244 275.36333716 44.5 278.5 C40.81005412 282.24030338 37.02496302 285.7823935 33.02734375 289.19140625 C30.58571366 291.36958492 28.29951968 293.67248008 26 296 C23.10408042 298.93118191 20.19757429 301.76403174 17.0625 304.4375 C13.71074927 307.30172335 10.59443244 310.36333716 7.5 313.5 C3.81005412 317.24030338 0.02496302 320.7823935 -3.97265625 324.19140625 C-6.41428634 326.36958492 -8.70048032 328.67248008 -11 331 C-13.89591958 333.93118191 -16.80242571 336.76403174 -19.9375 339.4375 C-23.28925073 342.30172335 -26.40556756 345.36333716 -29.5 348.5 C-33.18994588 352.24030338 -36.97503698 355.7823935 -40.97265625 359.19140625 C-43.41428634 361.36958492 -45.70048032 363.67248008 -48 366 C-50.89591958 368.93118191 -53.80242571 371.76403174 -56.9375 374.4375 C-60.28925073 377.30172335 -63.40556756 380.36333716 -66.5 383.5 C-70.18994588 387.24030338 -73.97503698 390.7823935 -77.97265625 394.19140625 C-80.41428634 396.36958492 -82.70048032 398.67248008 -85 401 C-88.49624488 404.53881711 -92.07526378 407.85478808 -95.86328125 411.07421875 C-99.52463751 414.37412485 -102.89085018 417.97925033 -106.2890625 421.546875 C-109.66431381 424.60113699 -112.77602954 426.76628225 -117.37890625 427.25 C-121.57308684 426.76980759 -123.59539076 426.32031565 -127 423.625 C-130.21513979 419.40512903 -130.2090009 416.18551581 -130 411 C-129.60736799 408.81630704 -129.13741262 406.64546194 -128.6015625 404.49243164 C-128.29283203 403.24325455 -127.98410156 401.99407745 -127.66601562 400.70704651 C-127.32085655 399.35760954 -126.9737998 398.00865676 -126.625 396.66015625 C-126.35707642 395.62406629 -126.35707642 395.62406629 -126.08374023 394.56704521 C-125.13123481 390.90122901 -124.16431169 387.23950277 -123.18847656 383.57983398 C-122.3948393 380.59113976 -121.63237674 377.59716777 -120.89746094 374.59350586 C-116.64097603 357.25038428 -112.82486664 342.89544276 -97.98937988 331.53549194 C-92.84420016 327.56421321 -88.02343113 323.16261363 -83.5 318.5 C-80.79196435 315.75499458 -78.05830751 313.1272909 -75.125 310.625 C-71.75442279 307.73785219 -68.61495793 304.65753382 -65.5 301.5 C-61.81005779 297.75969175 -58.02496304 294.21760652 -54.02734375 290.80859375 C-50.68256946 287.82471996 -47.58664843 284.59380268 -44.4375 281.40625 C-41.74716094 278.75040247 -38.93426475 276.29864568 -36.0625 273.84375 C-33.61075311 271.65203687 -31.31114427 269.33932896 -29 267 C-26.10408042 264.06881809 -23.19757429 261.23596826 -20.0625 258.5625 C-16.71074927 255.69827665 -13.59443244 252.63666284 -10.5 249.5 C-6.81135536 245.76101562 -3.02807943 242.21963329 0.96875 238.8125 C4.32833227 235.8147189 7.43933157 232.57027041 10.59765625 229.36328125 C12.66291835 227.33160065 14.76325288 225.46182976 17 223.625 C20.1550553 220.86432661 21.6635075 219.07947889 22.3317318 214.94994164 C22.43365588 208.8272018 20.92103786 204.58653366 18.11962891 199.20166016 C17.70653473 198.37255127 17.29344055 197.54344238 16.86782837 196.68920898 C15.50441903 193.96355675 14.11588201 191.2515865 12.7265625 188.5390625 C11.76250493 186.62522727 10.79999668 184.71061089 9.83895874 182.79525757 C7.30400403 177.75398556 4.7473212 172.7240405 2.18615723 167.69604492 C-0.38325893 162.64159409 -2.93053496 157.57601716 -5.48046875 152.51171875 C-16.02793073 131.59391787 -26.60034673 110.69056789 -37.91796875 90.17578125 C-39.98980116 84.09491572 -37.76697687 77.60375333 -36.11401367 71.57763672 C-35.92522141 70.88384918 -35.73642914 70.19006165 -35.54191589 69.47525024 C-34.92317488 67.20839449 -34.29610931 64.94395525 -33.66796875 62.6796875 C-33.23039674 61.09128664 -32.79300658 59.50283567 -32.35578918 57.91433716 C-31.44097516 54.59655703 -30.52158266 51.28008492 -29.59936523 47.96435547 C-28.42140468 43.72638555 -27.25864792 39.48440779 -26.09974194 35.24119377 C-25.20209379 31.96364731 -24.29454175 28.68890381 -23.38421059 25.41485977 C-22.95137117 23.85220074 -22.52200753 22.28857444 -22.09627342 20.72396469 C-21.49921915 18.53415227 -20.8884191 16.34861621 -20.27416992 14.16357422 C-19.93077072 12.92195526 -19.58737152 11.6803363 -19.23356628 10.40109253 C-17.64179084 6.0123737 -15.78463458 2.17275987 -11.8125 -0.4375 C-7.74486613 -1.25102677 -3.88623502 -1.58895323 0 0 Z " fill="#088141" transform="translate(309,43)"/>
</svg>
